<svg xmlns="http://www.w3.org/2000/svg" version="1.1" xmlns:xlink="http://www.w3.org/1999/xlink" xmlns:svgjs="http://svgjs.com/svgjs" width="512" height="512" x="0" y="0" viewBox="0 0 682.667 682.667" style="enable-background:new 0 0 512 512" xml:space="preserve" class=""><g><defs><clipPath id="a" clipPathUnits="userSpaceOnUse"><path d="M0 512h512V0H0Z" fill="#000000" data-original="#000000"></path></clipPath></defs><g clip-path="url(#a)" transform="matrix(1.33333 0 0 -1.33333 0 682.667)"><path d="M0 0c41.485 0 75.116 33.63 75.116 75.116 0 35.838-25.106 65.794-58.684 73.291a118.006 118.006 0 0 1 4.387 31.963c0 65.119-52.789 117.908-117.907 117.908-60.928 0-111.059-46.215-117.259-105.502-16.597 15.153-41.264 19.839-63.01 9.936-23.381-10.649-36.247-34.918-33.51-59.135a74.811 74.811 0 0 1-30.901 6.655c-41.486 0-75.116-33.631-75.116-75.116C-416.884 33.63-383.254 0-341.768 0z" style="fill-opacity:1;fill-rule:nonzero;stroke:none" transform="translate(426.884 106.861)" fill="#93e7f8" data-original="#93e7f8" class=""></path><path d="M0 0h189.217c41.485 0 75.116 33.63 75.116 75.116 0 35.838-25.106 65.794-58.684 73.291a118.006 118.006 0 0 1 4.387 31.963c0 65.119-52.789 117.908-117.907 117.908-60.928 0-111.059-46.215-117.259-105.502-16.597 15.153-41.264 19.839-63.01 9.936-23.381-10.649-36.247-34.918-33.509-59.135a74.82 74.82 0 0 1-30.902 6.655c-41.486 0-75.116-33.631-75.116-75.116C-227.667 33.63-194.037 0-152.551 0H-80" style="stroke-width:20;stroke-linecap:round;stroke-linejoin:round;stroke-miterlimit:10;stroke-dasharray:none;stroke-opacity:1" transform="translate(237.667 106.861)" fill="none" stroke="#000000" stroke-width="20" stroke-linecap="round" stroke-linejoin="round" stroke-miterlimit="10" stroke-dasharray="none" stroke-opacity="" data-original="#000000" class=""></path><path d="m0 0-.329.001" style="stroke-width:20;stroke-linecap:round;stroke-linejoin:round;stroke-miterlimit:10;stroke-dasharray:none;stroke-opacity:1" transform="translate(330.125 365.138)" fill="none" stroke="#000000" stroke-width="20" stroke-linecap="round" stroke-linejoin="round" stroke-miterlimit="10" stroke-dasharray="none" stroke-opacity="" data-original="#000000" class=""></path><path d="M0 0c0 28.82-15.649 53.985-38.913 67.461" style="stroke-width:20;stroke-linecap:round;stroke-linejoin:round;stroke-miterlimit:10;stroke-dasharray:none;stroke-opacity:1" transform="translate(407.704 287.231)" fill="none" stroke="#000000" stroke-width="20" stroke-linecap="round" stroke-linejoin="round" stroke-miterlimit="10" stroke-dasharray="none" stroke-opacity="" data-original="#000000" class=""></path><path d="M0 0v0" style="stroke-width:20;stroke-linecap:round;stroke-linejoin:round;stroke-miterlimit:10;stroke-dasharray:none;stroke-opacity:1" transform="translate(197.667 106.861)" fill="none" stroke="#000000" stroke-width="20" stroke-linecap="round" stroke-linejoin="round" stroke-miterlimit="10" stroke-dasharray="none" stroke-opacity="" data-original="#000000" class=""></path></g></g></svg>
