<svg xmlns="http://www.w3.org/2000/svg" version="1.1" xmlns:xlink="http://www.w3.org/1999/xlink" xmlns:svgjs="http://svgjs.com/svgjs" width="512" height="512" x="0" y="0" viewBox="0 0 512 511" style="enable-background:new 0 0 512 512" xml:space="preserve" class=""><g><path fill="#fdc202" d="M99.559 261.68c0-86.211 69.89-156.102 156.101-156.102 86.207 0 156.098 69.89 156.098 156.102v81.007h-312.2zm0 0" data-original="#fdc202"></path><path fill="#f0a70a" d="M273.398 106.574c-77.859 8.809-138.363 74.895-138.363 155.106v81.007H99.56V261.68c0-86.211 69.89-156.102 156.101-156.102 6 0 11.918.336 17.738.996zm0 0" data-original="#f0a70a"></path><path fill="#a0cafe" d="M442.66 218.395c-24.625-.196-45.957 13.937-56.195 34.554-.602 1.215-2.227 1.406-3.13.39-7.202-8.093-17.69-13.194-29.378-13.194-21.723 0-39.328 17.605-39.328 39.324 0 2.199.187 4.351.539 6.449a1.892 1.892 0 0 1-1.863 2.21h-57.14c-14.872 0-27.438 11.661-27.849 26.524-.421 15.422 11.954 28.055 27.282 28.055H442.16c33.985 0 61.602-27.273 62.153-61.125.554-34.324-27.325-62.918-61.653-63.187zm0 0" data-original="#a0cafe"></path><path fill="#81b8fd" d="M504.324 280.555c0 34.324-27.836 62.156-62.168 62.156H255.598c-15.075 0-27.286-12.223-27.286-27.285 0-4.38 1.032-8.516 2.868-12.184a26.94 26.94 0 0 0 3.832.274H421.57c34.332 0 62.164-27.825 62.164-62.157 0-2.504-.152-4.976-.445-7.41 12.895 11.383 21.035 28.047 21.035 46.606zm0 0" data-original="#81b8fd"></path><path fill="#c0dbff" d="M63.113 257.496c24.016-1.121 45.012 12.297 54.965 32.2.594 1.187 2.195 1.433 3.082.44 6.754-7.546 16.563-12.3 27.488-12.3 20.375 0 36.887 16.516 36.887 36.887 0 2.023-.168 4.004-.48 5.937a1.884 1.884 0 0 0 1.863 2.188H346.07c14.352 0 26.442 11.746 26.172 26.093-.265 13.91-11.62 25.102-25.594 25.102H65.91c-33.113 0-59.785-27.61-58.242-61.066 1.375-29.848 25.594-54.082 55.445-55.48zm0 0" data-original="#c0dbff"></path><path fill="#a0cafe" d="M372.246 348.45c0 14.14-11.465 25.593-25.594 25.593H65.906c-32.191 0-58.304-26.102-58.304-58.305 0-30.093 22.808-54.855 52.07-57.968a58.095 58.095 0 0 0-6.426 26.636c0 32.196 26.102 58.305 58.305 58.305h260.035c.437 1.844.66 3.762.66 5.738zm0 0" data-original="#a0cafe"></path><path fill="#e6f1ff" d="M345.809 322.855c-31.832 0-62.262 15.153-73.922 44.137-.719 1.79-3.02 2.332-4.469 1.063-32.648-28.543-85.219-.657-78.207 43.273.281 1.746-1.035 3.336-2.8 3.336h-35.848c-18.543 0-34.07 15.176-33.715 33.711.343 17.965 15.015 32.422 33.062 32.422h193.3c103.774 0 110.462-157.942 2.599-157.942zm0 0" data-original="#e6f1ff"></path><path fill="#d9e9ff" d="M408.047 350.617c-9.863-4.226-21.438-6.64-34.758-6.64-31.828 0-62.258 15.156-73.914 44.144-.719 1.785-3.02 2.332-4.469 1.055-32.648-28.543-85.226-.66-78.21 43.281.28 1.746-1.036 3.336-2.798 3.336h-35.855c-18.54 0-34.066 15.164-33.711 33.703.07 3.914.832 7.664 2.156 11.129-16.437-1.691-29.312-15.426-29.636-32.254-.356-18.539 15.164-33.71 33.714-33.71h35.84c1.774 0 3.082-1.583 2.809-3.337-7.016-43.93 45.55-71.816 78.203-43.273 1.45 1.277 3.75.73 4.469-1.051 11.668-28.992 42.086-44.145 73.925-44.145 28.797 0 49.434 11.262 62.235 27.762zm0 0" data-original="#d9e9ff"></path><path d="M504.02 248.246a7.601 7.601 0 0 0-10.258-3.21 7.6 7.6 0 0 0-3.215 10.257c18.91 36.184-7.496 79.793-48.39 79.793H403.78c-13.972-12.129-33.695-19.867-57.129-19.867h-110.73c.094-10.774 8.879-19.512 19.676-19.512h59.996c4.933 0 8.476-4.57 7.422-9.266-4.496-20.09 10.863-38.718 30.933-38.718 9.965 0 19.16 4.55 25.23 12.496 3.512 4.601 10.684 3.722 13.005-1.57 13.753-31.387 52.742-42.415 80.816-23.133a7.603 7.603 0 0 0 10.574-1.957c2.371-3.465 1.5-8.2-1.969-10.57-20.597-14.157-46.69-15.884-68.457-5.9-5.933-20.921-15.988-40.628-29.691-57.718a7.602 7.602 0 0 0-10.684-1.176 7.602 7.602 0 0 0-1.175 10.684c13.5 16.848 22.968 35.914 28.086 56.32a69.713 69.713 0 0 0-16.266 17.696c-30.848-24.97-77.512-2.055-76.379 37.605h-51.441c-19.18 0-34.79 15.563-34.891 34.719h-27.57c0-38.383-43.555-58.059-72.008-35.489a65.77 65.77 0 0 0-13.969-15.406c0-88.449 69.594-151.144 148.5-151.144 35.04 0 69.059 12.437 95.777 35.011a7.589 7.589 0 0 0 10.715-.902c2.703-3.203 2.301-7.996-.902-10.715-29.469-24.883-66.96-38.597-105.59-38.597-88.105 0-160.176 69.96-163.57 157.253C48.398 236.36 0 268.625 0 315.715c0 36.34 29.566 65.906 65.906 65.906H87.73a7.605 7.605 0 0 0 7.602-7.601 7.605 7.605 0 0 0-7.602-7.602H65.906c-27.957 0-50.703-22.746-50.703-50.703 0-53.91 74.867-71.078 97.156-20.332 2.34 5.312 9.504 6.152 13.008 1.558 18.778-24.593 58.738-6.722 51.848 24.22-1.059 4.69 2.484 9.26 7.418 9.26h108.054c-10.382 6.876-19.367 16.454-25.242 27.997-23.254-16.195-53.418-10.973-71.601 8H118.14a7.606 7.606 0 0 0-7.606 7.602 7.606 7.606 0 0 0 7.606 7.601h67.457c-3.477 7.797-5.059 16.453-4.493 25.414h-31.199c-22.422 0-40.668 18.242-40.668 40.676 0 22.422 18.246 40.668 40.668 40.668h193.309c80.148 0 108.187-87.086 73.976-138.09h24.965c52.239 0 86.082-55.695 61.864-102.043zM343.215 473.172H149.906c-14.039 0-25.46-11.422-25.46-25.461 0-14.05 11.421-25.473 25.46-25.473h39.946c4.875 0 8.488-4.52 7.421-9.265-8.98-40.02 40.082-65.141 67.73-36.766 3.985 4.094 10.88 2.492 12.661-2.918 20.254-61.55 138.645-60.402 138.645 25.918 0 36.754-25.106 73.965-73.094 73.965zM255.66 50.844c4.2 0 7.602-3.407 7.602-7.602V8.102A7.6 7.6 0 0 0 255.66.5a7.601 7.601 0 0 0-7.605 7.602v35.14a7.604 7.604 0 0 0 7.605 7.602zM163.254 68.453a7.608 7.608 0 0 0 7.148 5.008c5.258 0 8.95-5.242 7.141-10.207l-12.016-33.02a7.604 7.604 0 0 0-14.289 5.2zM93.734 120.46a7.59 7.59 0 0 0 5.829 2.72c6.398 0 9.988-7.528 5.82-12.493L82.797 83.773a7.604 7.604 0 0 0-11.648 9.773zM20.734 173.223c33.266 19.207 31.453 18.59 34.227 18.59 7.73 0 10.543-10.297 3.809-14.188l-30.43-17.566a7.6 7.6 0 0 0-10.387 2.78 7.603 7.603 0 0 0 2.781 10.384zM340.918 73.46a7.606 7.606 0 0 0 7.145-5.007l12.015-33.02a7.6 7.6 0 0 0-4.543-9.742 7.596 7.596 0 0 0-9.742 4.543l-12.02 33.02c-1.804 4.96 1.883 10.207 7.145 10.207zM411.754 123.18a7.584 7.584 0 0 0 5.828-2.72l22.586-26.917a7.596 7.596 0 0 0-.938-10.707 7.604 7.604 0 0 0-10.71.934l-22.586 26.918c-4.164 4.964-.579 12.492 5.82 12.492zM460.148 190.793l30.43-17.57a7.601 7.601 0 1 0-7.601-13.164l-30.43 17.566a7.602 7.602 0 0 0-2.781 10.387c2.097 3.636 6.75 4.879 10.382 2.781zm0 0" fill="#000000" data-original="#000000" class=""></path></g></svg>