<svg xmlns="http://www.w3.org/2000/svg" version="1.1" xmlns:xlink="http://www.w3.org/1999/xlink" xmlns:svgjs="http://svgjs.com/svgjs" width="512" height="512" x="0" y="0" viewBox="0 0 64 64" style="enable-background:new 0 0 512 512" xml:space="preserve" class=""><g><g data-name="16-Strom"><g fill="#7aaeef"><path d="M55.76 46.24c.62.61-.04 3.74-1.23 4.93a2.616 2.616 0 0 1-3.7-3.7c1.19-1.19 4.32-1.85 4.93-1.23zM44.76 54.24c.62.61-.04 3.74-1.23 4.93a2.616 2.616 0 0 1-3.7-3.7c1.19-1.19 4.32-1.85 4.93-1.23zM8.76 57.24c.62.61-.04 3.74-1.23 4.93a2.478 2.478 0 0 1-3.7 0 2.478 2.478 0 0 1 0-3.7c1.19-1.19 4.32-1.85 4.93-1.23zM26.76 57.24c.62.61-.04 3.74-1.23 4.93a2.616 2.616 0 0 1-3.7-3.7c1.19-1.19 4.32-1.85 4.93-1.23zM21.76 47.24c.62.61-.04 3.74-1.23 4.93a2.478 2.478 0 0 1-3.7 0 2.478 2.478 0 0 1 0-3.7c1.19-1.19 4.32-1.85 4.93-1.23zM35.76 44.24c.62.61-.04 3.74-1.23 4.93a2.616 2.616 0 0 1-3.7-3.7c1.19-1.19 4.32-1.85 4.93-1.23zM26.76 36.24c.62.61-.04 3.74-1.23 4.93a2.616 2.616 0 0 1-3.7-3.7c1.19-1.19 4.32-1.85 4.93-1.23z" fill="#7aaeef" data-original="#7aaeef"></path></g><path fill="#ffdc70" d="M12 30a6.812 6.812 0 0 0 3.87-1.19L16 29l-4 5h6L5 48l6-11H5l5-7 .07-.27A6.819 6.819 0 0 0 12 30zM50 29l-6 7h9L35 55l7-14h-7l6-8a7.993 7.993 0 0 0 7.61-5.54 6.494 6.494 0 0 0 1.52 1.35z" data-original="#ffdc70"></path><path fill="#b0afb5" d="M56.32 16.4A7 7 0 0 1 54 30a6.812 6.812 0 0 1-3.87-1.19 6.494 6.494 0 0 1-1.52-1.35A7.993 7.993 0 0 1 41 33c-4.42 0-7-2-8-6-1 4-3.58 6-8 6a7.993 7.993 0 0 1-7.61-5.54 6.494 6.494 0 0 1-1.52 1.35 6.933 6.933 0 0 1-5.8.92 7 7 0 0 1-1.3-12.94A4.982 4.982 0 0 1 12 8a4.912 4.912 0 0 1 3.09 1.1A7.9 7.9 0 0 1 15 8a7 7 0 0 1 13.6-2.32 4.952 4.952 0 0 1 8.8 0A7 7 0 0 1 51 8v.02a4.981 4.981 0 1 1 5.32 8.38z" data-original="#b0afb5" class=""></path><path fill="#959499" d="M54 22a6.975 6.975 0 0 1-5.39-2.54A7.993 7.993 0 0 1 41 25c-4.42 0-7-2-8-6-1 4-3.58 6-8 6a7.993 7.993 0 0 1-7.61-5.54 6.992 6.992 0 0 1-11.123-.448A6.989 6.989 0 0 0 17.39 27.46 7.993 7.993 0 0 0 25 33c4.42 0 7-2 8-6 1 4 3.58 6 8 6a7.993 7.993 0 0 0 7.61-5.54 6.993 6.993 0 0 0 11.128-8.455A6.983 6.983 0 0 1 54 22z" data-original="#959499"></path><path fill="#f3b83a" d="M15.87 28.81a6.933 6.933 0 0 1-5.8.92L10 30l-1.479 2.071A6.968 6.968 0 0 0 12 33a7.089 7.089 0 0 0 .842-.052L16 29zM50.13 28.81a6.494 6.494 0 0 1-1.52-1.35A7.993 7.993 0 0 1 41 33l-2.1 2.8a11.536 11.536 0 0 0 2.1.2 7.936 7.936 0 0 0 3.864-1.008l3.617-4.22c.04-.106.094-.2.129-.312.022.027.049.051.072.078L50 29z" data-original="#f3b83a"></path><path fill="#e8e7f0" d="M48 11.588c.015.572.509.977.925 1.344a8.114 8.114 0 0 1 .822.836c.7.828 1.33 1.859 2.343 2.167a1.1 1.1 0 0 0 .78-.013 1.262 1.262 0 0 0 .4-.327 3.223 3.223 0 0 0 .5-3.251 4.282 4.282 0 0 0-3.124-2.287c-.931-.237-2.678.263-2.646 1.531zM44.5 6c-.044.364.272.652.543.889a7.917 7.917 0 0 1 1.038 1.1c.191.247.425.534.73.506a.581.581 0 0 0 .411-.275 1.543 1.543 0 0 0 .188-.483 2.174 2.174 0 0 0 .084-.635 1.582 1.582 0 0 0-.8-1.232c-.411-.247-2.082-.754-2.194.13z" data-original="#e8e7f0" class=""></path><path fill="#6994d4" d="M55.53 49.17a2.478 2.478 0 0 1-3.7 0 2.641 2.641 0 0 1-.823-1.856c-.062.051-.123.1-.177.156a2.616 2.616 0 0 0 3.7 3.7A5.444 5.444 0 0 0 55.685 49c-.051.056-.102.117-.155.17zM44.53 57.17a2.478 2.478 0 0 1-3.7 0 2.641 2.641 0 0 1-.823-1.856c-.062.051-.123.1-.177.156a2.616 2.616 0 0 0 3.7 3.7A5.444 5.444 0 0 0 44.685 57c-.051.056-.102.117-.155.17zM26.53 60.17a2.478 2.478 0 0 1-3.7 0 2.641 2.641 0 0 1-.823-1.856c-.062.051-.123.1-.177.156a2.616 2.616 0 0 0 3.7 3.7A5.444 5.444 0 0 0 26.685 60c-.051.056-.102.117-.155.17zM8.53 60.17a2.478 2.478 0 0 1-3.7 0 2.641 2.641 0 0 1-.823-1.856c-.062.051-.123.1-.177.156a2.478 2.478 0 0 0 0 3.7 2.478 2.478 0 0 0 3.7 0A5.444 5.444 0 0 0 8.685 60c-.051.056-.102.117-.155.17zM21.53 50.17a2.478 2.478 0 0 1-3.7 0 2.641 2.641 0 0 1-.823-1.856c-.062.051-.123.1-.177.156a2.478 2.478 0 0 0 0 3.7 2.478 2.478 0 0 0 3.7 0A5.444 5.444 0 0 0 21.685 50c-.051.056-.102.117-.155.17zM35.53 47.17a2.478 2.478 0 0 1-3.7 0 2.641 2.641 0 0 1-.823-1.856c-.062.051-.123.1-.177.156a2.616 2.616 0 0 0 3.7 3.7A5.444 5.444 0 0 0 35.685 47c-.051.056-.102.117-.155.17zM26.53 39.17a2.478 2.478 0 0 1-3.7 0 2.641 2.641 0 0 1-.823-1.856c-.062.051-.123.1-.177.156a2.616 2.616 0 0 0 3.7 3.7 5.444 5.444 0 0 0 1.155-2.175c-.051.061-.102.122-.155.175z" data-original="#6994d4"></path><path d="M58.237 16.219A5.934 5.934 0 0 0 60 12a6.006 6.006 0 0 0-6-6 5.862 5.862 0 0 0-2.158.411A8 8 0 0 0 37.22 3.763a5.932 5.932 0 0 0-8.44 0 8 8 0 0 0-14.755 3.6A5.826 5.826 0 0 0 12 7a5.976 5.976 0 0 0-4.784 9.589A8 8 0 0 0 8.6 30.242l-4.413 6.177A1 1 0 0 0 5 38h4.315l-5.193 9.521a1 1 0 0 0 1.61 1.16l13-14A1 1 0 0 0 18 33h-3.865l3.016-3.619A8.961 8.961 0 0 0 25 34c3.805 0 6.485-1.411 8-4.2a7.8 7.8 0 0 0 6.11 4.053L34.2 40.4A1 1 0 0 0 35 42h5.382L34.1 54.553a1 1 0 0 0 1.621 1.135l18-19A1 1 0 0 0 53 35h-6.826l4.191-4.89a8.041 8.041 0 0 0 5.919.559l-.568-1.917a5.975 5.975 0 0 1-5.053-.788 5.455 5.455 0 0 1-1.283-1.142 1 1 0 0 0-1.721.331A6.978 6.978 0 0 1 41 32c-3.9 0-6.136-1.666-7.03-5.243a1 1 0 0 0-1.94 0C31.136 30.334 28.9 32 25 32a6.978 6.978 0 0 1-6.659-4.847 1 1 0 0 0-1.721-.331 5.544 5.544 0 0 1-1.314 1.163 5.991 5.991 0 1 1-6.074-10.309 1 1 0 0 0 .19-1.644A3.959 3.959 0 0 1 8 13a4 4 0 0 1 4-4 3.915 3.915 0 0 1 2.465.881 1 1 0 0 0 1.615-.918A7.131 7.131 0 0 1 16 8a6 6 0 0 1 11.656-1.988 1 1 0 0 0 1.827.135 3.954 3.954 0 0 1 7.034 0 .979.979 0 0 0 .958.53 1 1 0 0 0 .869-.665A6 6 0 0 1 50 8.02a1 1 0 0 0 1.6.8 3.982 3.982 0 1 1 4.254 6.7 1 1 0 0 0 .134 1.827 6.008 6.008 0 0 1 3.765 7.372l1.916.57a8 8 0 0 0-3.432-9.066zM50.675 37 38.907 49.422l3.993-7.975A1 1 0 0 0 42 40h-5l4.527-6.036a8.968 8.968 0 0 0 3.86-1.118l-2.146 2.5A1 1 0 0 0 44 37zm-37.384-6.112-2.06 2.471A1 1 0 0 0 12 35h3.707l-6 6.465 2.174-3.986A1 1 0 0 0 11 36H6.943l3.667-5.133a7.409 7.409 0 0 0 2.681.021z" fill="#000000" data-original="#000000" class=""></path><path d="m57.094 28.144 1.033 1.713a8.068 8.068 0 0 0 2.44-2.286l-1.64-1.142a6.086 6.086 0 0 1-1.833 1.715zM54.86 45h-.019a7.634 7.634 0 0 0-4.718 1.76A3.544 3.544 0 0 0 49 49.417 3.859 3.859 0 0 0 52.583 53h.11a3.565 3.565 0 0 0 2.544-1.123A7.636 7.636 0 0 0 57 47.14 1.88 1.88 0 0 0 54.86 45zm-1.037 5.46a1.644 1.644 0 0 1-1.175.54A1.876 1.876 0 0 1 51 49.352a1.588 1.588 0 0 1 .537-1.175 5.863 5.863 0 0 1 3.3-1.183A1.572 1.572 0 0 1 55 47a5.8 5.8 0 0 1-1.177 3.463zM37 45.14A1.88 1.88 0 0 0 34.86 43h-.019a7.634 7.634 0 0 0-4.718 1.76A3.544 3.544 0 0 0 29 47.417 3.859 3.859 0 0 0 32.583 51h.11a3.565 3.565 0 0 0 2.544-1.123A7.636 7.636 0 0 0 37 45.14zm-3.174 3.323a1.655 1.655 0 0 1-1.178.537A1.876 1.876 0 0 1 31 47.352a1.588 1.588 0 0 1 .537-1.175 5.863 5.863 0 0 1 3.3-1.183A1.572 1.572 0 0 1 35 45a5.8 5.8 0 0 1-1.177 3.463zM25.86 56h-.019a7.634 7.634 0 0 0-4.718 1.76A3.544 3.544 0 0 0 20 60.417 3.859 3.859 0 0 0 23.583 64h.11a3.565 3.565 0 0 0 2.544-1.123A7.636 7.636 0 0 0 28 58.14 1.88 1.88 0 0 0 25.86 56zm-1.037 5.46a1.667 1.667 0 0 1-1.175.54A1.876 1.876 0 0 1 22 60.352a1.588 1.588 0 0 1 .537-1.175 5.863 5.863 0 0 1 3.3-1.183A1.572 1.572 0 0 1 26 58a5.8 5.8 0 0 1-1.177 3.463zM23 48.14A1.88 1.88 0 0 0 20.86 46h-.019a7.634 7.634 0 0 0-4.718 1.76A3.544 3.544 0 0 0 15 50.417 3.859 3.859 0 0 0 18.583 54h.11a3.565 3.565 0 0 0 2.544-1.123A7.636 7.636 0 0 0 23 48.14zm-3.174 3.323a1.669 1.669 0 0 1-1.178.537A1.876 1.876 0 0 1 17 50.352a1.588 1.588 0 0 1 .537-1.175 5.863 5.863 0 0 1 3.3-1.183A1.572 1.572 0 0 1 21 48a5.8 5.8 0 0 1-1.177 3.463zM43.86 53h-.019a7.634 7.634 0 0 0-4.718 1.76A3.544 3.544 0 0 0 38 57.417 3.859 3.859 0 0 0 41.583 61h.11a3.565 3.565 0 0 0 2.544-1.123A7.636 7.636 0 0 0 46 55.14 1.88 1.88 0 0 0 43.86 53zm-1.037 5.46A1.685 1.685 0 0 1 40 57.352a1.588 1.588 0 0 1 .537-1.175 5.863 5.863 0 0 1 3.3-1.183A1.572 1.572 0 0 1 44 55a5.8 5.8 0 0 1-1.177 3.463zM7.86 56h-.019a7.634 7.634 0 0 0-4.718 1.76A3.544 3.544 0 0 0 2 60.417a3.663 3.663 0 0 0 1.121 2.46A3.663 3.663 0 0 0 5.583 64h.11a3.565 3.565 0 0 0 2.544-1.123A7.636 7.636 0 0 0 10 58.14a2.17 2.17 0 0 0-.524-1.6A2.172 2.172 0 0 0 7.86 56zm-1.037 5.46a1.672 1.672 0 0 1-1.175.54 1.689 1.689 0 0 1-1.111-.537A1.689 1.689 0 0 1 4 60.352a1.588 1.588 0 0 1 .537-1.175 5.863 5.863 0 0 1 3.3-1.183A1.572 1.572 0 0 1 8 58a5.8 5.8 0 0 1-1.177 3.463zM25.86 35h-.019a7.634 7.634 0 0 0-4.718 1.76A3.544 3.544 0 0 0 20 39.417 3.859 3.859 0 0 0 23.583 43h.11a3.565 3.565 0 0 0 2.544-1.123A7.636 7.636 0 0 0 28 37.14 1.88 1.88 0 0 0 25.86 35zm-1.037 5.46a1.631 1.631 0 0 1-1.175.54A1.876 1.876 0 0 1 22 39.352a1.588 1.588 0 0 1 .537-1.175 5.863 5.863 0 0 1 3.3-1.183A1.572 1.572 0 0 1 26 37a5.8 5.8 0 0 1-1.177 3.463z" fill="#000000" data-original="#000000" class=""></path></g></g></svg>