<svg xmlns="http://www.w3.org/2000/svg" version="1.1" xmlns:xlink="http://www.w3.org/1999/xlink" xmlns:svgjs="http://svgjs.com/svgjs" width="512" height="512" x="0" y="0" viewBox="0 0 512 512" style="enable-background:new 0 0 512 512" xml:space="preserve" class=""><g><path d="M264.855 89.83a1.993 1.993 0 0 0 1.569-1.526c7.652-34.223 38.271-59.804 74.879-59.804 42.371 0 76.719 34.269 76.719 76.541 0 4.785-.454 9.461-1.301 14.001-.284 1.519 1.168 2.749 2.634 2.251a56.42 56.42 0 0 1 18.209-3.004c31.169 0 56.436 25.208 56.436 56.305S468.733 232.5 437.564 232.5H279c-40.317 0-73-31.005-73-71.229 0-35.392 25.311-64.867 58.855-71.441z" style="" fill="#8ebac5" data-original="#8ebac5"></path><path d="M388.022 105.041c0 4.785-.454 9.461-1.302 14.001-.284 1.519 1.168 2.749 2.634 2.251a56.42 56.42 0 0 1 18.209-3.004c3.119 0 6.176.263 9.158.749a76.215 76.215 0 0 0 1.301-13.997c0-42.272-34.348-76.541-76.719-76.541-5.128 0-10.133.519-14.979 1.476 35.177 6.968 61.698 37.922 61.698 75.065zM437.564 118.289c-5.195 0-10.219.715-14.995 2.028C446.451 126.874 464 148.683 464 174.593c0 31.096-25.267 57.907-56.436 57.907h30c31.169 0 56.436-26.81 56.436-57.907 0-31.096-25.267-56.304-56.436-56.304z" style="" fill="#7ca1b1" data-original="#7ca1b1"></path><path d="M422.979 214.841a82.49 82.49 0 0 0-7.308.343c-1.323-44.137-37.468-79.517-81.894-79.517-4.73 0-9.358.423-13.868 1.193C305.645 92.278 263.9 60 214.615 60c-61.053 0-110.546 49.529-110.546 110.626 0 .324.009.645.012.968-25.185 5.198-44.12 27.514-44.12 54.256 0 5.032.683 9.901 1.939 14.535-31.125 6.942-54.4 34.725-54.4 67.965C7.5 346.816 38.661 378 77.101 378H422.98c45.023 0 81.521-36.524 81.521-81.579s-36.499-81.58-81.522-81.58z" style="" fill="#eaf9fa" data-original="#eaf9fa" class=""></path><path d="M201.43 263.987s66.089-49.732 137.946 19.3c1.393 1.339 3.691.087 3.317-1.808C339.277 264.173 315.444 213.333 256 219c-41.296 3.937-54.57 44.987-54.57 44.987z" style="" fill="#d4f2f6" data-original="#d4f2f6"></path><path d="M422.979 214.841a82.49 82.49 0 0 0-7.308.343c-1.323-44.137-37.468-79.517-81.894-79.517-4.73 0-9.358.423-13.868 1.193C305.645 92.278 263.9 60 214.615 60c-12.249 0-24.03 1.998-35.042 5.678.081 0 .161-.003.242-.003 49.285 0 108.101 30.244 118.155 91.124 2.836 13.672 22.937 21.408 27.192 23.475 1.839-7.245 2.453-17.8 0-31.73 32.081 1.258 63.381 60.072 57.762 76.811 12.745-6.356 17.357-7.975 19.822-7.975 45.023 0 66.955 39.661 66.955 84.716 0 34.5-21.412 63.977-51.654 75.904h4.933c45.023 0 81.521-36.524 81.521-81.579s-36.499-81.58-81.522-81.58z" style="" fill="#d4f2f6" data-original="#d4f2f6"></path><path d="M289.56 321.254c-4.344 10.01-13.848 12.847-22.44 9.127s-13.016-12.59-8.672-22.6c3.451-7.952 18.187-15.039 24.102-17.617a2.531 2.531 0 0 1 3.405 1.475c2.159 6.074 7.056 21.664 3.605 29.615zM208.804 380.804c-4.344 10.01-13.848 12.847-22.44 9.127s-13.016-12.59-8.673-22.6c3.451-7.952 18.187-15.039 24.102-17.617a2.531 2.531 0 0 1 3.405 1.475c2.16 6.074 7.057 21.663 3.606 29.615zM376.182 380.804c-4.344 10.01-13.848 12.847-22.44 9.127s-13.016-12.59-8.672-22.6c3.451-7.952 18.187-15.039 24.102-17.617a2.531 2.531 0 0 1 3.405 1.475c2.159 6.074 7.056 21.663 3.605 29.615zM167.426 461.804c-4.344 10.01-13.848 12.847-22.44 9.127s-13.016-12.59-8.673-22.6c3.451-7.952 18.187-15.039 24.102-17.617a2.531 2.531 0 0 1 3.405 1.475c2.159 6.074 7.056 21.663 3.606 29.615zM342.956 461.804c-4.344 10.01-13.848 12.847-22.44 9.127s-13.016-12.59-8.672-22.6c3.451-7.952 18.187-15.039 24.102-17.617a2.531 2.531 0 0 1 3.405 1.475c2.159 6.074 7.055 21.663 3.605 29.615z" style="" fill="#62dbfb" data-original="#62dbfb" class=""></path><path d="M414.162 80.999a76.31 76.31 0 0 1 3.861 24.041c0 4.785-.454 9.461-1.301 14.001-.284 1.519 1.168 2.749 2.634 2.251a56.42 56.42 0 0 1 18.209-3.004c31.169 0 56.436 25.208 56.436 56.305 0 20.795-11.3 39.674-28.108 49.899M271.366 73.531C283.405 46.977 310.191 28.5 341.303 28.5c20.97 0 39.975 8.394 53.823 21.997M415.604 213.503c-2.178-43.351-37.966-77.836-81.827-77.836-3.938 0-7.806.293-11.594.836M102.25 172.004c-24.266 5.879-42.289 27.755-42.289 53.846 0 4.064.445 8.023 1.279 11.837" style="stroke-width:15;stroke-linecap:round;stroke-linejoin:round;stroke-miterlimit:10;" fill="none" stroke="#000000" stroke-width="15" stroke-linecap="round" stroke-linejoin="round" stroke-miterlimit="10" data-original="#000000" class=""></path><path d="M379 378h43.979c45.023 0 81.521-36.524 81.521-81.579s-36.498-81.579-81.521-81.579c-17.646 0-33.983 5.611-47.326 15.147M211.5 378h130M117.667 378h56M141.006 280.709c-10.69-24.717-35.279-42.01-63.905-42.01-38.439 0-69.601 31.184-69.601 69.651S38.661 378 77.101 378h6.01M108.697 202.401a110.697 110.697 0 0 1-4.628-31.775C104.069 109.529 153.562 60 214.615 60s110.546 49.529 110.546 110.626c0 3.819-.193 7.592-.571 11.311M199.319 270.448c10.206-37.242 48.648-59.154 85.864-48.94 13.724 3.766 25.365 11.376 34.081 21.349M24.481 483.5l9.989-18.616M48.455 438.116l9.989-18.616M74.253 483.5l9.989-18.616M98.226 438.116l9.989-18.616M289.56 321.254c-4.344 10.01-13.848 12.847-22.44 9.127s-13.016-12.59-8.672-22.6c3.451-7.952 18.187-15.039 24.102-17.617a2.531 2.531 0 0 1 3.405 1.475c2.159 6.074 7.056 21.664 3.605 29.615zM208.804 380.804c-4.344 10.01-13.848 12.847-22.44 9.127s-13.016-12.59-8.673-22.6c3.451-7.952 18.187-15.039 24.102-17.617a2.531 2.531 0 0 1 3.405 1.475c2.16 6.074 7.057 21.663 3.606 29.615zM376.182 380.804c-4.344 10.01-13.848 12.847-22.44 9.127s-13.016-12.59-8.672-22.6c3.451-7.952 18.187-15.039 24.102-17.617a2.531 2.531 0 0 1 3.405 1.475c2.159 6.074 7.056 21.663 3.605 29.615zM167.426 461.804c-4.344 10.01-13.848 12.847-22.44 9.127s-13.016-12.59-8.673-22.6c3.451-7.952 18.187-15.039 24.102-17.617a2.531 2.531 0 0 1 3.405 1.475c2.159 6.074 7.056 21.663 3.606 29.615zM200.012 483.5l9.989-18.616M223.985 438.116l9.989-18.616M249.783 483.5l9.989-18.616M273.757 438.116l9.989-18.616M342.956 461.804c-4.344 10.01-13.848 12.847-22.44 9.127s-13.016-12.59-8.672-22.6c3.451-7.952 18.187-15.039 24.102-17.617a2.531 2.531 0 0 1 3.405 1.475c2.159 6.074 7.055 21.663 3.605 29.615zM375.542 483.5l9.989-18.616M399.515 438.116l9.989-18.616M425.313 483.5l9.989-18.616M449.287 438.116l9.989-18.616" style="stroke-width:15;stroke-linecap:round;stroke-linejoin:round;stroke-miterlimit:10;" fill="none" stroke="#000000" stroke-width="15" stroke-linecap="round" stroke-linejoin="round" stroke-miterlimit="10" data-original="#000000" class=""></path></g></svg>