<svg xmlns="http://www.w3.org/2000/svg" version="1.1" xmlns:xlink="http://www.w3.org/1999/xlink" xmlns:svgjs="http://svgjs.com/svgjs" width="512" height="512" x="0" y="0" viewBox="0 0 511.999 511.999" style="enable-background:new 0 0 512 512" xml:space="preserve" class=""><g><path fill="#dfebfa" d="M218.351 179.682c.057-21.712 16.428-39.718 37.603-42.145 4.041-.463 7.068-3.922 6.806-7.981-1.95-30.303 22.119-56.929 53.49-56.929 14.277 0 27.229 5.601 36.832 14.703 1.735-42.741-32.45-79.908-76.855-79.908-26.043 0-49.055 12.946-62.97 32.75a10.934 10.934 0 0 1-15.827 2.279 60.808 60.808 0 0 0-38.009-13.268c-34.122 0-60.808 27.712-61.093 60.429-.056 6.392-5.492 11.374-11.857 10.789-34.341-3.154-65.875 23.553-66.521 59.73-.612 34.211 28.008 62.212 62.225 62.212h179.479c-23.467 0-43.364-19.195-43.303-42.661z" data-original="#dfebfa" class=""></path><path fill="#b1dbfc" d="M67.949 180.798c.647-36.177 32.18-62.883 66.521-59.729 6.365.585 11.801-4.397 11.857-10.789.285-32.717 26.97-60.429 61.093-60.429a60.81 60.81 0 0 1 38.009 13.268 10.934 10.934 0 0 0 15.827-2.279c13.915-19.804 36.927-32.75 62.97-32.75 1.541 0 3.067.055 4.583.143-13.631-12.819-32.005-20.81-52.583-20.81-26.043 0-49.055 12.946-62.97 32.75a10.934 10.934 0 0 1-15.827 2.279 60.808 60.808 0 0 0-38.009-13.268c-34.122 0-60.808 27.713-61.093 60.429-.056 6.392-5.492 11.374-11.857 10.789-34.341-3.154-65.875 23.553-66.521 59.73-.612 34.211 28.009 62.212 62.225 62.212h1.553c-10.005-11.038-16.063-25.617-15.778-41.546z" data-original="#b1dbfc"></path><g fill="#dfebfa"><circle cx="278.176" cy="273.945" r="15.373" fill="#dfebfa" data-original="#dfebfa" class=""></circle><circle cx="363.866" cy="303.051" r="13.316" fill="#dfebfa" data-original="#dfebfa" class=""></circle><circle cx="124.907" cy="440.934" r="15.189" fill="#dfebfa" data-original="#dfebfa" class=""></circle><circle cx="182" cy="484.536" r="19.885" fill="#dfebfa" data-original="#dfebfa" class=""></circle></g><path fill="#b1dbfc" d="M277.991 273.945c0-5.725 3.136-10.71 7.778-13.355a15.28 15.28 0 0 0-7.594-2.017c-8.49 0-15.373 6.883-15.373 15.373s6.883 15.373 15.373 15.373c2.765 0 5.353-.74 7.594-2.017-4.641-2.647-7.778-7.632-7.778-13.357zM365.739 303.051c0-4.529 2.266-8.524 5.721-10.93a13.247 13.247 0 0 0-7.594-2.386c-7.354 0-13.316 5.962-13.316 13.316s5.962 13.316 13.316 13.316c2.825 0 5.439-.886 7.594-2.386-3.455-2.406-5.721-6.401-5.721-10.93zM124.907 440.934c0-5.619 3.059-10.513 7.594-13.14a15.102 15.102 0 0 0-7.594-2.049c-8.388 0-15.189 6.8-15.189 15.189s6.8 15.189 15.189 15.189c2.77 0 5.359-.753 7.594-2.049-4.535-2.627-7.594-7.521-7.594-13.14zM177.303 484.536c0-8.292 5.078-15.391 12.291-18.376a19.803 19.803 0 0 0-7.594-1.509c-10.982 0-19.885 8.903-19.885 19.885s8.903 19.885 19.885 19.885c2.691 0 5.254-.541 7.594-1.509-7.213-2.985-12.291-10.084-12.291-18.376z" data-original="#b1dbfc"></path><path fill="#dfebfa" d="M481.004 147.788c-8.931-8.003-20.817-11.972-32.614-10.889a6.988 6.988 0 0 1-5.374-1.787 7.16 7.16 0 0 1-2.341-5.235c-.204-23.485-19.52-42.591-43.058-42.591-9.841 0-19.104 3.234-26.789 9.352a7.093 7.093 0 0 1-5.474 1.499 7.095 7.095 0 0 1-4.831-2.983c-10.13-14.418-26.682-23.026-44.274-23.026-15.104 0-29.103 6.058-39.418 17.058-10.211 10.89-15.523 25.616-14.572 40.403.241 3.742-2.554 7.016-6.364 7.453-21.632 2.479-37.988 20.811-38.046 42.64-.029 11.243 4.444 21.937 12.597 30.11 8.273 8.295 19.647 13.052 31.206 13.052h189.775c11.744 0 23.23-4.836 31.513-13.268 8.158-8.305 12.538-19.165 12.334-30.579-.214-12.072-5.283-23.155-14.27-31.209z" data-original="#dfebfa" class=""></path><path fill="#b1dbfc" d="M283.448 211.791c-8.153-8.174-12.626-18.867-12.597-30.11.058-21.829 16.414-40.161 38.046-42.64 3.81-.437 6.605-3.71 6.364-7.453-.951-14.787 4.36-29.514 14.572-40.403a54.068 54.068 0 0 1 14.634-11.082c-8.389-5.134-18.128-7.976-28.216-7.976-15.104 0-29.103 6.058-39.418 17.058-10.211 10.89-15.523 25.616-14.572 40.403.241 3.742-2.554 7.016-6.364 7.453-21.632 2.479-37.988 20.811-38.046 42.64-.029 11.243 4.444 21.937 12.597 30.11 8.273 8.295 19.647 13.052 31.206 13.052h40.057a44.7 44.7 0 0 1-18.263-11.052z" data-original="#b1dbfc"></path><path d="M386.221 413.096a7.5 7.5 0 0 0 2.338-14.816l-20.271-3.198 19.85-11.46a7.5 7.5 0 0 0-7.5-12.99l-19.85 11.461 7.366-19.154a7.5 7.5 0 0 0-4.308-9.692 7.497 7.497 0 0 0-9.692 4.309l-14.022 36.464-21.783 12.576v-25.153l24.567-30.375a7.5 7.5 0 1 0-11.662-9.433l-12.905 15.956V334.67c0-4.142-3.357-7.5-7.5-7.5s-7.5 3.358-7.5 7.5v22.921l-12.905-15.956a7.5 7.5 0 0 0-10.548-1.115 7.499 7.499 0 0 0-1.114 10.548l24.567 30.375v25.153l-21.783-12.576-14.023-36.464a7.496 7.496 0 0 0-9.692-4.308 7.5 7.5 0 0 0-4.308 9.692l7.366 19.154-19.849-11.46a7.5 7.5 0 0 0-7.5 12.99l19.85 11.46-20.271 3.198a7.499 7.499 0 0 0-6.239 8.577 7.499 7.499 0 0 0 8.577 6.239l38.591-6.088 21.782 12.576-21.782 12.576-38.591-6.088a7.497 7.497 0 0 0-8.577 6.239 7.498 7.498 0 0 0 6.239 8.577l20.271 3.198-19.85 11.46a7.5 7.5 0 0 0 7.5 12.99l19.849-11.46-7.366 19.154a7.499 7.499 0 0 0 4.308 9.692 7.499 7.499 0 0 0 9.692-4.308l14.023-36.465 21.783-12.576v25.153l-24.567 30.376a7.5 7.5 0 1 0 11.662 9.433l12.905-15.956v22.92c0 4.142 3.357 7.5 7.5 7.5s7.5-3.358 7.5-7.5v-22.92l12.905 15.956a7.5 7.5 0 1 0 11.662-9.433l-24.567-30.376v-25.153l21.783 12.576 14.022 36.465a7.5 7.5 0 0 0 14-5.383l-7.366-19.155 19.851 11.461a7.5 7.5 0 0 0 7.5-12.99l-19.85-11.46 20.271-3.198a7.499 7.499 0 0 0 6.239-8.577 7.49 7.49 0 0 0-8.577-6.239l-38.59 6.088-21.782-12.576 21.782-12.576zM208.665 320.845a7.5 7.5 0 0 0 2.338-14.816l-13.147-2.074 13.245-7.647a7.5 7.5 0 0 0-7.5-12.99l-13.245 7.647 4.777-12.423c1.487-3.866-.442-8.206-4.309-9.692s-8.207.443-9.691 4.309L169.7 302.891l-15.676 9.051V293.84l20.032-24.768a7.5 7.5 0 1 0-11.662-9.433l-8.37 10.349v-15.294c0-4.142-3.357-7.5-7.5-7.5s-7.5 3.358-7.5 7.5v15.294l-8.37-10.349a7.5 7.5 0 0 0-10.548-1.115 7.499 7.499 0 0 0-1.114 10.548l20.032 24.768v18.1l-15.675-9.05-11.433-29.732a7.5 7.5 0 1 0-14 5.383l4.777 12.423-13.245-7.647a7.5 7.5 0 0 0-7.5 12.99l13.245 7.647-13.147 2.074a7.499 7.499 0 0 0-6.239 8.577 7.499 7.499 0 0 0 8.577 6.239l31.466-4.964 15.675 9.05-15.675 9.05-31.466-4.964a7.501 7.501 0 0 0-8.577 6.239 7.498 7.498 0 0 0 6.239 8.577l13.147 2.074-13.245 7.647a7.5 7.5 0 0 0 7.5 12.99l13.245-7.647-4.777 12.423a7.499 7.499 0 0 0 4.309 9.692 7.499 7.499 0 0 0 9.691-4.309l11.433-29.733 15.675-9.05v18.1l-20.032 24.768a7.5 7.5 0 1 0 11.662 9.433l8.37-10.349v15.294c0 4.142 3.357 7.5 7.5 7.5s7.5-3.358 7.5-7.5v-15.294l8.37 10.349a7.5 7.5 0 0 0 10.548 1.115 7.499 7.499 0 0 0 1.114-10.548l-20.032-24.768v-18.101l15.676 9.051 11.433 29.733a7.5 7.5 0 0 0 14-5.383l-4.777-12.423 13.245 7.647a7.5 7.5 0 0 0 7.5-12.99l-13.245-7.647 13.147-2.074a7.499 7.499 0 0 0 6.239-8.577 7.494 7.494 0 0 0-8.577-6.239l-31.466 4.964-15.675-9.05 15.675-9.05zM278.09 296.895c12.612 0 22.873-10.261 22.873-22.873s-10.261-22.873-22.873-22.873c-12.611 0-22.872 10.261-22.872 22.873s10.261 22.873 22.872 22.873zm0-30.745c4.341 0 7.873 3.532 7.873 7.873s-3.532 7.873-7.873 7.873-7.872-3.532-7.872-7.873c0-4.342 3.532-7.873 7.872-7.873zM363.781 323.944c11.478 0 20.815-9.338 20.815-20.815 0-11.478-9.338-20.816-20.815-20.816s-20.815 9.338-20.815 20.816c-.001 11.477 9.337 20.815 20.815 20.815zm0-26.631c3.207 0 5.815 2.609 5.815 5.816s-2.608 5.815-5.815 5.815-5.815-2.609-5.815-5.815a5.82 5.82 0 0 1 5.815-5.816zM124.822 418.323c-12.511 0-22.688 10.178-22.688 22.689 0 12.51 10.178 22.688 22.688 22.688s22.689-10.178 22.689-22.688-10.178-22.689-22.689-22.689zm0 30.378c-4.239 0-7.688-3.449-7.688-7.688 0-4.24 3.449-7.689 7.688-7.689 4.24 0 7.689 3.449 7.689 7.689 0 4.239-3.449 7.688-7.689 7.688zM209.3 484.614c0-15.1-12.285-27.385-27.385-27.385-15.101 0-27.386 12.285-27.386 27.385s12.285 27.385 27.386 27.385c15.1 0 27.385-12.285 27.385-27.385zm-27.384 12.385c-6.829 0-12.386-5.556-12.386-12.385s5.557-12.385 12.386-12.385 12.385 5.556 12.385 12.385-5.556 12.385-12.385 12.385zM82.089 229.921h46.934c4.143 0 7.5-3.358 7.5-7.5s-3.357-7.5-7.5-7.5H82.089c-29.667 0-55.27-24.227-54.726-54.578.575-32.154 28.676-55.127 58.337-52.395 10.726.983 19.948-7.43 20.042-18.193.385-44.256 52.074-69.109 86.93-41.36 8.343 6.646 20.502 4.899 26.636-3.834C254.581-5.641 333.401 11.28 344.454 72.15c-8.478-4.448-18.368-6.946-28.288-6.946-36.284 0-63.177 30.872-60.962 64.873-.002.003-.044.07-.188.086-25.023 2.869-44.181 24.082-44.249 49.577-.033 12.882 5.067 25.473 14.64 35.072l.02.019.09.09h-61.492c-4.143 0-7.5 3.358-7.5 7.5s3.357 7.5 7.5 7.5h287.321c18.38 0 35.418-9.938 44.466-25.936a7.5 7.5 0 0 0-13.057-7.384c-6.391 11.3-18.426 18.32-31.409 18.32H261.569c-18.999 0-35.854-15.543-35.802-35.141.046-17.777 13.361-32.697 30.956-34.714 8.052-.922 13.952-7.914 13.437-15.914-1.645-25.574 18.564-48.947 46.006-48.947 15.293 0 29.294 7.619 37.729 19.625 5.018 7.145 14.993 8.594 21.833 3.144 22.829-18.174 56.613-1.851 56.864 27.052.078 8.855 7.68 15.726 16.446 14.919 15.771-1.454 30.618 7.972 36.057 22.914a7.5 7.5 0 1 0 14.095-5.13c-7.767-21.338-28.953-34.788-51.548-32.719-.05-.022-.051-.093-.051-.115-.361-41.385-48.64-64.582-81.208-38.654-.062.049-.085.049-.115.046-.027-.004-.054-.013-.101-.079a61.122 61.122 0 0 0-5.627-6.878c-.013-21.588-8.494-42.723-23.588-58.443-36.89-38.417-99.489-33.253-129.918 10.054-1.173 1.672-3.417 1.997-5.018.723-44.694-35.587-110.78-3.627-111.273 52.96-.017 1.988-1.656 3.573-3.671 3.386-38.199-3.505-73.973 26.036-74.706 67.064-.7 39.108 32.068 69.847 69.723 69.847z" fill="#000000" data-original="#000000" class=""></path></g></svg>