<svg xmlns="http://www.w3.org/2000/svg" version="1.1" xmlns:xlink="http://www.w3.org/1999/xlink" xmlns:svgjs="http://svgjs.com/svgjs" width="512" height="512" x="0" y="0" viewBox="0 0 512 512" style="enable-background:new 0 0 512 512" xml:space="preserve"><g><circle cx="255.997" cy="255.997" r="144.824" style="" fill="#ffd347" data-original="#ffd347"></circle><path d="M256 111.18c-5.242 0-10.418.286-15.516.828 72.685 7.743 129.303 69.252 129.303 143.991s-56.619 136.249-129.303 143.992c5.098.544 10.273.828 15.516.828 79.982 0 144.82-64.838 144.82-144.82S335.983 111.18 256 111.18z" style="" fill="#ffbe31" data-original="#ffbe31"></path><path d="M256 408.557c-84.12 0-152.557-68.437-152.557-152.557 0-34.564 11.881-68.423 33.454-95.34a7.735 7.735 0 0 1 10.875-1.199 7.737 7.737 0 0 1 1.199 10.876C129.309 194.87 118.916 224.49 118.916 256c0 75.588 61.496 137.084 137.084 137.084S393.084 331.589 393.084 256 331.588 118.916 256 118.916c-31.09 0-60.4 10.146-84.762 29.339a7.74 7.74 0 0 1-10.866-1.289 7.739 7.739 0 0 1 1.288-10.866c27.119-21.365 59.741-32.658 94.339-32.658 84.12 0 152.557 68.437 152.557 152.557S340.12 408.557 256 408.557zM256 56.848a7.736 7.736 0 0 1-7.737-7.737V7.737C248.263 3.463 251.727 0 256 0s7.737 3.463 7.737 7.737v41.375A7.736 7.736 0 0 1 256 56.848zM152.563 84.568a7.732 7.732 0 0 1-6.707-3.869l-20.687-35.831a7.737 7.737 0 0 1 13.401-7.737l20.687 35.831a7.737 7.737 0 0 1-6.694 11.606zM76.823 160.294a7.696 7.696 0 0 1-3.861-1.038L37.13 138.569a7.738 7.738 0 0 1 7.737-13.401l35.832 20.687a7.738 7.738 0 0 1-3.876 14.439zM49.112 263.737H7.737C3.464 263.737 0 260.274 0 256s3.464-7.737 7.737-7.737h41.376a7.737 7.737 0 1 1-.001 15.474zM41.005 387.869a7.737 7.737 0 0 1-3.875-14.438l35.832-20.687a7.738 7.738 0 0 1 7.737 13.401l-35.832 20.687a7.71 7.71 0 0 1-3.862 1.037zM131.862 478.74a7.738 7.738 0 0 1-6.693-11.607l20.687-35.832a7.738 7.738 0 0 1 13.401 7.737L138.57 474.87a7.736 7.736 0 0 1-6.708 3.87zM256 512a7.736 7.736 0 0 1-7.737-7.737v-41.375c0-4.274 3.464-7.737 7.737-7.737s7.737 3.463 7.737 7.737v41.375A7.736 7.736 0 0 1 256 512zM380.138 478.74a7.732 7.732 0 0 1-6.707-3.869l-20.687-35.832a7.737 7.737 0 0 1 13.401-7.737l20.687 35.832a7.737 7.737 0 0 1-6.694 11.606zM470.995 387.869a7.696 7.696 0 0 1-3.861-1.038l-35.832-20.687a7.738 7.738 0 0 1 7.737-13.401l35.832 20.687a7.738 7.738 0 0 1-3.876 14.439zM504.263 263.737h-41.376c-4.273 0-7.737-3.463-7.737-7.737s3.464-7.737 7.737-7.737h41.376c4.273 0 7.737 3.463 7.737 7.737s-3.464 7.737-7.737 7.737zM435.177 160.294a7.737 7.737 0 0 1-3.875-14.438l35.832-20.687a7.738 7.738 0 0 1 7.737 13.401l-35.832 20.687a7.71 7.71 0 0 1-3.862 1.037zM359.437 84.568a7.738 7.738 0 0 1-6.693-11.607l20.687-35.831a7.738 7.738 0 0 1 13.401 7.737l-20.687 35.831a7.737 7.737 0 0 1-6.708 3.87z" fill="#000000" data-original="#000000"></path></g></svg>